<svg width="109" height="42" viewBox="0 0 109 42" fill="none" xmlns="http://www.w3.org/2000/svg">
<g clip-path="url(#clip0_108_780)">
<path d="M45.5415 7.58403L49.5153 3.4869L52.879 0.191754C53.1056 -0.034896 53.2276 -0.0871999 53.4891 0.191754C54.6742 1.34244 55.8768 2.49312 57.0794 3.67868C57.0794 3.83559 56.9574 3.92276 56.8528 4.02737L54.9008 5.89287L49.4804 11.2802C49.4804 11.1756 49.3933 11.1233 49.3236 11.0535L48.0861 9.90284L45.5415 7.58403Z" fill="#2381B0"/>
<path d="M49.4806 11.2802C49.0742 11.7381 48.5748 12.104 48.0158 12.3536C47.4568 12.6031 46.851 12.7305 46.2388 12.7273C44.0196 12.7273 41.7945 12.7273 39.5636 12.7273C38.4778 12.6608 37.3904 12.8273 36.3741 13.2154L36.1998 13.0237L32.9929 10.0075H35.9733H40.8533C41.5694 10.0387 42.2837 9.91289 42.9461 9.63882C43.6084 9.36475 44.2029 8.94907 44.6877 8.42093C44.9491 8.12454 45.2628 7.86302 45.5417 7.6015L48.0863 9.93774L49.3237 11.0884C49.3237 11.0884 49.4806 11.1756 49.4806 11.2802Z" fill="#02609B"/>
<path d="M32.9929 10.0074L36.2173 13.0236L36.3915 13.2154C35.926 13.4689 35.4978 13.7857 35.1192 14.1569L33.5332 12.6924L31.5463 10.8269C31.4478 10.7272 31.3289 10.6499 31.1978 10.6002C31.746 10.2746 32.3586 10.0723 32.9929 10.0074Z" fill="#86D0E6"/>
<path d="M51.572 13.0759L55.5458 9.06597L58.9096 5.70109C59.1361 5.47444 59.2581 5.42214 59.5196 5.70109C60.7047 6.85178 61.9073 8.00246 63.1099 9.18802C63.1099 9.34493 62.9879 9.4321 62.8833 9.53671L61.001 11.4022L55.5284 16.7895C55.5284 16.6849 55.4412 16.6326 55.3715 16.5629L54.0295 15.4122L51.572 13.0759Z" fill="#2381B0"/>
<path d="M55.5283 16.7895C55.1219 17.2474 54.6225 17.6133 54.0635 17.8629C53.5045 18.1124 52.8987 18.2398 52.2865 18.2366C50.0673 18.2366 47.8422 18.2366 45.6113 18.2366C44.5255 18.1701 43.4381 18.3366 42.4218 18.7247L42.2475 18.533L39.0232 15.5168H42.0035H46.8836C47.5984 15.5502 48.3118 15.4271 48.9741 15.1561C49.6364 14.8851 50.2315 14.4727 50.718 13.9477C50.9794 13.6513 51.2931 13.3898 51.572 13.1282L54.0294 15.4122L55.2669 16.5629C55.2669 16.5629 55.5109 16.6849 55.5283 16.7895Z" fill="#02609B"/>
<path d="M39.0231 15.5168L42.2474 18.533L42.4217 18.7248C41.9562 18.9782 41.528 19.2951 41.1494 19.6662L39.5634 18.2017L37.5939 16.3362C37.4954 16.2365 37.3765 16.1592 37.2454 16.1096C37.7884 15.7863 38.3948 15.5841 39.0231 15.5168Z" fill="#86D0E6"/>
<path d="M57.5151 18.3761L61.4889 14.3661L64.8875 10.9838C65.1141 10.7572 65.2361 10.7049 65.4976 10.9838C66.6827 12.1345 67.8853 13.2852 69.0879 14.4707C69.0879 14.6276 68.9659 14.7148 68.8613 14.8194L66.9093 16.7024L61.4889 22.0897C61.4889 21.9851 61.4018 21.9327 61.3321 21.863L60.0946 20.7123L57.5151 18.3761Z" fill="#2381B0"/>
<path d="M61.489 22.0722C61.0826 22.5301 60.5832 22.896 60.0242 23.1456C59.4652 23.3951 58.8594 23.5225 58.2472 23.5193C56.028 23.5193 53.8029 23.5193 51.572 23.5193C50.4862 23.4528 49.3988 23.6193 48.3825 24.0074L48.2082 23.8157L44.9839 20.7995H47.9642H52.8443C53.5604 20.8307 54.2747 20.7049 54.937 20.4308C55.5994 20.1567 56.1938 19.7411 56.6786 19.2129C56.9401 18.9165 57.2538 18.655 57.5327 18.3935L60.0773 20.7297L61.3147 21.8804C61.3147 21.8804 61.489 21.9676 61.489 22.0722Z" fill="#02609B"/>
<path d="M45.0014 20.7995L48.2257 23.8157L48.4 24.0075C47.9344 24.261 47.5063 24.5778 47.1277 24.9489L45.5417 23.4844L43.5722 21.6189C43.4736 21.5192 43.3547 21.4419 43.2236 21.3923C43.7667 21.0691 44.3731 20.8669 45.0014 20.7995Z" fill="#86D0E6"/>
<path d="M63.2494 9.18805H63.11C63.11 9.34496 62.988 9.43213 62.8834 9.53674L61.0011 11.4022L55.5284 16.7895C55.122 17.2474 54.6226 17.6134 54.0636 17.8629C53.5046 18.1124 52.8988 18.2398 52.2866 18.2366C50.0674 18.2366 47.8423 18.2366 45.6114 18.2366C44.5256 18.1702 43.4382 18.3366 42.4219 18.7248C41.9564 18.9783 41.5282 19.2951 41.1496 19.6663L40.7836 20.0847L38.0647 22.8394L28.8274 32.2715C27.3808 33.7534 25.8994 35.2179 24.4528 36.7173C22.7099 38.4608 20.967 40.2042 19.2241 41.9477H20.3221C21.211 41.0585 22.065 40.2042 22.9713 39.2453C25.2719 36.8568 27.6074 34.5206 29.9429 32.1669L35.4678 26.5878L40.5745 21.3574C40.801 21.1308 41.0625 20.9564 41.2716 20.7123C41.6722 20.1549 42.1941 19.6958 42.7979 19.3696C43.4017 19.0435 44.0718 18.8587 44.7574 18.8294C47.3368 18.8294 49.986 18.8294 52.4958 18.8294C53.6955 18.8831 54.8695 18.4708 55.7724 17.6787C56.3824 17.1034 56.975 16.528 57.5153 15.9352L63.1274 10.2864C63.9117 9.60648 63.8943 9.79826 63.2494 9.18805Z" fill="#B9E0ED"/>
<path d="M39.5461 18.2017L37.5941 16.3362C37.4955 16.2365 37.3767 16.1592 37.2455 16.1096C36.8153 16.383 36.4176 16.7047 36.0604 17.0685L29.2457 24.0423L18.9278 34.5031L11.5554 42H19.2764C21.0193 40.2565 22.7622 38.513 24.5051 36.7696C25.9516 35.2702 27.4331 33.8057 28.8797 32.3238L38.117 22.8916L40.8359 20.137L41.2019 19.7185L39.5461 18.2017Z" fill="#4995BE"/>
<path d="M45.5241 23.5019L43.5721 21.6189C43.4735 21.5192 43.3546 21.4419 43.2235 21.3923C42.7932 21.6657 42.3956 21.9874 42.0383 22.3512L35.2237 29.325L24.9058 39.7858L22.6575 42H30.361C31.8076 40.5006 33.2716 39.0361 34.7357 37.5542L43.9729 28.122L46.6918 25.3674L47.0579 24.9489L45.5241 23.5019Z" fill="#4995BE"/>
<path d="M69.2275 14.4882H69.088C69.088 14.6451 68.966 14.7322 68.8615 14.8369L66.9094 16.7024L61.4891 22.0897C61.0826 22.5475 60.5833 22.9135 60.0242 23.163C59.4652 23.4125 58.8594 23.5399 58.2473 23.5367C56.028 23.5367 53.8029 23.5367 51.5721 23.5367C50.4863 23.4703 49.3988 23.6367 48.3826 24.0249C47.917 24.2784 47.4888 24.5952 47.1103 24.9664L46.7443 25.3848L44.0254 28.1395L34.8578 37.5542C33.4112 39.0361 31.9297 40.5006 30.4832 42H31.5637L35.9907 37.5193L41.5156 31.9402L46.6223 26.7098C46.8488 26.4832 47.1103 26.3088 47.3194 26.0647C47.72 25.5073 48.2419 25.0482 48.8457 24.7221C49.4496 24.3959 50.1196 24.2111 50.8052 24.1818C53.3847 24.1818 56.0338 24.1818 58.5436 24.1818C59.7445 24.2167 60.9124 23.7856 61.8028 22.9788C62.4128 22.4035 63.0054 21.8281 63.5457 21.2354L69.1578 15.5865C69.8898 14.8892 69.8723 15.0809 69.2275 14.4882Z" fill="#B9E0ED"/>
<path d="M33.5157 12.6924L31.5462 10.8269C31.4476 10.7272 31.3287 10.6499 31.1976 10.6002C30.7674 10.8737 30.3697 11.1954 30.0125 11.5591L23.1978 18.533L12.8799 28.9937L2.42261 39.6812C1.79517 40.3262 1.13287 40.9539 0.470579 41.5641L0 41.9825H7.87784C8.92357 40.8319 10.0216 39.7335 11.1196 38.6177C13.5596 36.1419 15.9997 33.6837 18.4223 31.1905C19.8689 29.6911 21.3503 28.2266 22.7969 26.7447L32.0342 17.3125L34.7531 14.5579L35.1191 14.1394L33.5157 12.6924Z" fill="#4995BE"/>
<path d="M57.219 3.69611H57.0796C57.0796 3.85302 56.9576 3.94019 56.853 4.0448L54.901 5.89287L49.4806 11.2802C49.0741 11.7381 48.5748 12.104 48.0158 12.3535C47.4567 12.6031 46.851 12.7305 46.2388 12.7272C44.0195 12.7272 41.7945 12.7272 39.5636 12.7272C38.4778 12.6608 37.3903 12.8272 36.3741 13.2154C35.9085 13.4689 35.4803 13.7857 35.1018 14.1569L34.7358 14.5753L32.0343 17.33L22.797 26.7621C21.3504 28.2441 19.869 29.7086 18.4224 31.2079C16.0172 33.7011 13.5597 36.1594 11.1197 38.6351C10.0217 39.7509 8.92366 40.8319 7.87793 42H8.94109L11.5206 39.3673L12.6709 38.1818L14.2395 36.5952L18.4747 32.254C20.2176 30.3885 22.1347 28.5579 23.9648 26.7098L29.4897 21.1307L34.5963 15.9003C34.8229 15.6737 35.0844 15.4993 35.2935 15.2553C35.6941 14.6979 36.216 14.2387 36.8198 13.9126C37.4236 13.5864 38.0936 13.4017 38.7793 13.3723C41.3587 13.3723 44.0079 13.3723 46.5177 13.3723C47.7198 13.4213 48.8941 13.0026 49.7943 12.2042C50.4043 11.6289 50.9969 11.0535 51.5372 10.4607L57.1493 4.81192C57.8813 4.0971 57.8639 4.28888 57.219 3.69611Z" fill="#B9E0ED"/>
<path d="M92.1463 33.2478C92.3205 33.2478 92.3728 33.0386 92.4426 32.9166C93.314 31.4869 94.1854 30.0573 95.0394 28.6276C95.0954 28.517 95.1838 28.426 95.2928 28.3668C95.4017 28.3076 95.5262 28.283 95.6495 28.2964H99.1352C99.2398 28.2964 99.4141 28.2964 99.449 28.2964C99.4838 28.2964 99.449 28.523 99.3269 28.6276C98.1418 30.5803 96.9566 32.5156 95.754 34.4508C95.6818 34.5602 95.6363 34.6851 95.6212 34.8153C95.606 34.9455 95.6217 35.0774 95.6669 35.2005C96.2072 37.0486 96.7475 38.8966 97.3052 40.7447C97.4098 41.076 97.3052 41.1631 97.0089 41.1457H93.5231C93.4727 41.1531 93.4213 41.1503 93.372 41.1376C93.3227 41.1248 93.2764 41.1024 93.2358 41.0715C93.1952 41.0407 93.1612 41.0021 93.1357 40.9579C93.1103 40.9138 93.0938 40.865 93.0874 40.8144C92.7388 39.5766 92.3728 38.3387 92.0068 37.1009C92.0068 36.9091 91.9197 36.7522 91.6583 36.7696C91.3968 36.7871 91.4317 36.944 91.3968 37.1183C91.2051 38.3387 90.996 39.5417 90.8042 40.7621C90.8042 41.0237 90.6822 41.1457 90.3859 41.1457C89.3054 41.1457 88.2306 41.1457 87.1616 41.1457C86.8479 41.1457 86.7782 41.0411 86.8305 40.7621C87.4928 36.7406 88.1434 32.719 88.7825 28.6974C88.7825 28.3836 88.9219 28.2441 89.2879 28.2615C90.322 28.2615 91.3562 28.2615 92.3903 28.2615C92.7563 28.2615 92.8434 28.3487 92.7737 28.7148C92.5297 30.1445 92.3031 31.5567 92.0765 32.9863C92.1114 33.1258 92.0591 33.1258 92.1463 33.2478Z" fill="#4B4F56"/>
<path d="M79.9113 33.2478C80.1553 33.2478 80.1728 33.0561 80.2425 32.934C81.1139 31.5044 81.9853 30.0573 82.8742 28.6102C82.9272 28.5009 83.0124 28.4106 83.1184 28.3513C83.2244 28.2921 83.346 28.2668 83.4668 28.279C84.6345 28.279 85.8197 28.279 86.9526 28.279C87.2837 28.279 87.3186 28.279 87.1443 28.6102C85.9591 30.528 84.774 32.4807 83.6585 34.3985C83.5671 34.5288 83.5083 34.6792 83.487 34.8369C83.4658 34.9947 83.4828 35.1553 83.5365 35.3051C84.0942 37.0486 84.5997 38.9664 85.1574 40.797C85.262 41.1283 85.1574 41.1806 84.8611 41.1806H81.3753C81.3282 41.1879 81.28 41.1855 81.2339 41.1735C81.1877 41.1615 81.1445 41.1401 81.1069 41.1106C81.0693 41.0812 81.0381 41.0444 81.0154 41.0025C80.9926 40.9605 80.9787 40.9143 80.9745 40.8668C80.6259 39.6289 80.2599 38.3911 79.8939 37.1706C79.8939 36.9788 79.8939 36.8045 79.5279 36.8219C79.1619 36.8394 79.3013 37.066 79.2665 37.2229C79.0747 38.3911 78.8656 39.5592 78.6913 40.7099C78.6913 41.0237 78.5519 41.1806 78.1684 41.1806C77.1401 41.1806 76.0944 41.1806 75.0661 41.1806C74.7524 41.1806 74.6478 41.1806 74.7001 40.7796C75.1997 37.7343 75.6935 34.6891 76.1815 31.6439C76.3384 30.6501 76.4953 29.6563 76.6521 28.6625C76.6521 28.3836 76.7741 28.2615 77.1053 28.2615C78.1336 28.2615 79.1793 28.2615 80.2076 28.2615C80.713 28.2615 80.6956 28.2615 80.6259 28.7497C80.3819 30.2665 80.1727 31.731 79.9113 33.2478Z" fill="#4B4F56"/>
<path d="M67.0837 41.1631C66.3775 41.2092 65.6688 41.1265 64.9922 40.919C64.3376 40.7286 63.7633 40.3289 63.3573 39.781C62.9512 39.2332 62.7358 38.5674 62.7439 37.8854C62.7589 36.7538 62.8874 35.6265 63.1273 34.5205C63.2306 33.6815 63.3819 32.8491 63.5805 32.0274C63.8289 30.9618 64.4174 30.006 65.2569 29.3046C66.0965 28.6031 67.1415 28.1942 68.234 28.1395C69.177 28.0258 70.1327 28.079 71.0574 28.2964C71.798 28.4576 72.4598 28.8706 72.9301 29.465C73.4004 30.0595 73.6502 30.7987 73.6369 31.5567C73.6265 32.3363 73.539 33.1131 73.3755 33.8755C73.1837 34.9738 73.0792 36.0897 72.7829 37.1706C72.5469 38.3159 71.9173 39.3424 71.0036 40.0717C70.0898 40.801 68.9496 41.1872 67.7808 41.1631H67.0837ZM66.7176 36.6127C66.7176 37.589 66.9617 37.8157 67.6937 37.7459C67.9902 37.7528 68.2788 37.6497 68.504 37.4566C68.7292 37.2636 68.8751 36.994 68.9137 36.6999C69.0531 36.142 69.1228 35.5666 69.2274 34.9564C69.332 34.3462 69.5063 33.4047 69.5934 32.6202C69.6806 31.8356 69.3668 31.6438 68.6697 31.6961C68.3897 31.6977 68.1175 31.788 67.892 31.954C67.6666 32.1201 67.4995 32.3533 67.4148 32.6202C67.3049 32.9545 67.229 33.2992 67.1882 33.6488L66.7176 36.6127Z" fill="#4B4F56"/>
<path d="M60.025 31.9577C59.4673 31.9577 58.927 31.9577 58.2821 31.9577C58.0032 31.9577 57.9161 32.0623 57.8812 32.3064L56.8355 38.792C56.7135 39.5068 56.5915 40.2217 56.5044 40.9365C56.5044 41.1457 56.3824 41.1806 56.1906 41.1806H52.7049C52.4609 41.1806 52.426 41.0934 52.4609 40.8668C52.9314 38.0249 53.3846 35.1656 53.8726 32.3238C53.8726 32.01 53.8726 31.9402 53.5589 31.9402H50.4566C50.1428 31.9402 50.0208 31.9402 50.0905 31.5392C50.2823 30.5803 50.4043 29.6214 50.5437 28.6451C50.5437 28.3661 50.6831 28.2441 50.9968 28.2615H62.2559C62.5696 28.2615 62.6219 28.2615 62.5696 28.6451C62.3953 29.604 62.2559 30.5629 62.1164 31.5392C62.1164 31.8356 61.977 31.9751 61.6459 31.9577C61.3147 31.9402 60.5653 31.9577 60.025 31.9577Z" fill="#4B4F55"/>
<path d="M109 40.6226V28.4184C109.001 28.39 108.995 28.3618 108.983 28.336C108.971 28.3101 108.954 28.2871 108.932 28.2688C108.911 28.2504 108.885 28.2371 108.858 28.2298C108.83 28.2225 108.801 28.2214 108.773 28.2266H102.83C102.78 28.2193 102.728 28.222 102.679 28.2348C102.63 28.2475 102.583 28.2699 102.543 28.3008C102.502 28.3316 102.468 28.3702 102.443 28.4144C102.417 28.4585 102.401 28.5073 102.395 28.5579C102.203 29.1855 101.976 29.8132 101.75 30.4408L98.2639 40.7098C98.1593 40.9888 98.1419 41.1282 98.5253 41.1282C99.6931 41.1282 100.843 41.1282 102.011 41.1282C102.062 41.1382 102.114 41.1374 102.164 41.1257C102.215 41.114 102.262 41.0918 102.303 41.0605C102.345 41.0292 102.379 40.9895 102.403 40.9441C102.428 40.8987 102.443 40.8485 102.447 40.797C102.604 40.1868 102.813 39.6114 102.952 39.0535C103.092 38.4956 103.179 38.5305 103.58 38.5653C103.916 38.5936 104.254 38.5936 104.591 38.5653C104.835 38.5653 104.904 38.5653 104.904 38.8792C104.904 39.5242 104.904 40.1519 104.904 40.797C104.904 41.0759 104.904 41.198 105.253 41.1805C106.386 41.1805 107.519 41.1805 108.739 41.1805C109.017 41.1805 109.105 41.1805 109.105 40.8318L109 40.6226ZM105.044 35.0958C105.044 35.5143 104.73 35.3399 104.521 35.3748C104.312 35.4097 104.068 35.3748 104.19 34.9564C104.486 34.0672 104.73 33.2129 105.009 32.254C105.044 33.1257 105.044 34.1544 105.044 35.0784V35.0958Z" fill="#4B4F56"/>
</g>
<defs>
<clipPath id="clip0_108_780">
<rect width="109" height="42" fill="white"/>
</clipPath>
</defs>
</svg>
